<?xml version="1.0" encoding="UTF-8" standalone="no"?>
<!DOCTYPE svg PUBLIC "-//W3C//DTD SVG 1.1//EN"
 "http://www.w3.org/Graphics/SVG/1.1/DTD/svg11.dtd">
<!-- Generated by graphviz version 2.42.3 (20191010.1750)
 -->
<!-- Title: %3 Pages: 1 -->
<svg width="1053pt" height="188pt"
 viewBox="0.00 0.00 1053.19 188.00" xmlns="http://www.w3.org/2000/svg" xmlns:xlink="http://www.w3.org/1999/xlink">
<g id="graph0" class="graph" transform="scale(1 1) rotate(0) translate(4 184)">
<title>%3</title>
<polygon fill="white" stroke="transparent" points="-4,4 -4,-184 1049.19,-184 1049.19,4 -4,4"/>
<!-- bastion -->
<g id="node1" class="node">
<title>bastion</title>
<ellipse fill="none" stroke="black" cx="741.05" cy="-162" rx="36.29" ry="18"/>
<text text-anchor="middle" x="741.05" y="-158.3" font-family="Times,serif" font-size="14.00">bastion</text>
</g>
<!-- networking -->
<g id="node2" class="node">
<title>networking</title>
<ellipse fill="none" stroke="black" cx="398.05" cy="-18" rx="50.89" ry="18"/>
<text text-anchor="middle" x="398.05" y="-14.3" font-family="Times,serif" font-size="14.00">networking</text>
</g>
<!-- bastion&#45;&gt;networking -->
<g id="edge1" class="edge">
<title>bastion&#45;&gt;networking</title>
<path fill="none" stroke="black" d="M714.56,-149.36C675.14,-132.11 598.64,-98.9 533.05,-72 502.23,-59.36 467.23,-45.64 440.58,-35.32"/>
<polygon fill="black" stroke="black" points="441.76,-32.02 431.17,-31.68 439.23,-38.55 441.76,-32.02"/>
</g>
<!-- services/cluster -->
<g id="node3" class="node">
<title>services/cluster</title>
<ellipse fill="none" stroke="black" cx="459.05" cy="-90" rx="64.99" ry="18"/>
<text text-anchor="middle" x="459.05" y="-86.3" font-family="Times,serif" font-size="14.00">services/cluster</text>
</g>
<!-- bastion&#45;&gt;services/cluster -->
<g id="edge2" class="edge">
<title>bastion&#45;&gt;services/cluster</title>
<path fill="none" stroke="black" d="M713.65,-149.95C707.89,-147.82 701.81,-145.72 696.05,-144 637.78,-126.57 569.93,-111.96 521.8,-102.52"/>
<polygon fill="black" stroke="black" points="522.32,-99.06 511.84,-100.59 520.99,-105.93 522.32,-99.06"/>
</g>
<!-- services/cluster&#45;&gt;networking -->
<g id="edge5" class="edge">
<title>services/cluster&#45;&gt;networking</title>
<path fill="none" stroke="black" d="M444.59,-72.41C436.99,-63.69 427.54,-52.85 419.14,-43.21"/>
<polygon fill="black" stroke="black" points="421.61,-40.71 412.4,-35.47 416.33,-45.31 421.61,-40.71"/>
</g>
<!-- iam -->
<g id="node4" class="node">
<title>iam</title>
<ellipse fill="none" stroke="black" cx="519.05" cy="-18" rx="27" ry="18"/>
<text text-anchor="middle" x="519.05" y="-14.3" font-family="Times,serif" font-size="14.00">iam</text>
</g>
<!-- services/cluster&#45;&gt;iam -->
<g id="edge6" class="edge">
<title>services/cluster&#45;&gt;iam</title>
<path fill="none" stroke="black" d="M473.26,-72.41C481.14,-63.22 491.04,-51.67 499.62,-41.66"/>
<polygon fill="black" stroke="black" points="502.31,-43.91 506.16,-34.04 496.99,-39.35 502.31,-43.91"/>
</g>
<!-- persistence -->
<g id="node5" class="node">
<title>persistence</title>
<ellipse fill="none" stroke="black" cx="50.05" cy="-162" rx="50.09" ry="18"/>
<text text-anchor="middle" x="50.05" y="-158.3" font-family="Times,serif" font-size="14.00">persistence</text>
</g>
<!-- persistence&#45;&gt;networking -->
<g id="edge3" class="edge">
<title>persistence&#45;&gt;networking</title>
<path fill="none" stroke="black" d="M79.56,-147.25C118.67,-129.21 189.98,-96.9 252.05,-72 285.66,-58.51 324.19,-44.59 353.23,-34.4"/>
<polygon fill="black" stroke="black" points="354.4,-37.69 362.69,-31.09 352.1,-31.09 354.4,-37.69"/>
</g>
<!-- persistence&#45;&gt;services/cluster -->
<g id="edge4" class="edge">
<title>persistence&#45;&gt;services/cluster</title>
<path fill="none" stroke="black" d="M86.68,-149.64C94.04,-147.59 101.76,-145.59 109.05,-144 205.46,-122.9 318.66,-107.42 389.63,-98.81"/>
<polygon fill="black" stroke="black" points="390.27,-102.25 399.78,-97.58 389.44,-95.3 390.27,-102.25"/>
</g>
<!-- services/namespace -->
<g id="node6" class="node">
<title>services/namespace</title>
<ellipse fill="none" stroke="black" cx="606.05" cy="-162" rx="80.69" ry="18"/>
<text text-anchor="middle" x="606.05" y="-158.3" font-family="Times,serif" font-size="14.00">services/namespace</text>
</g>
<!-- services/namespace&#45;&gt;services/cluster -->
<g id="edge7" class="edge">
<title>services/namespace&#45;&gt;services/cluster</title>
<path fill="none" stroke="black" d="M573.42,-145.46C551.64,-135.09 522.83,-121.38 499.58,-110.3"/>
<polygon fill="black" stroke="black" points="500.85,-107.03 490.32,-105.89 497.84,-113.35 500.85,-107.03"/>
</g>
<!-- services/nodegroup -->
<g id="node7" class="node">
<title>services/nodegroup</title>
<ellipse fill="none" stroke="black" cx="313.05" cy="-162" rx="79.09" ry="18"/>
<text text-anchor="middle" x="313.05" y="-158.3" font-family="Times,serif" font-size="14.00">services/nodegroup</text>
</g>
<!-- services/nodegroup&#45;&gt;networking -->
<g id="edge8" class="edge">
<title>services/nodegroup&#45;&gt;networking</title>
<path fill="none" stroke="black" d="M323.3,-143.87C338.12,-119.11 365.64,-73.14 382.83,-44.42"/>
<polygon fill="black" stroke="black" points="385.89,-46.13 388.02,-35.75 379.88,-42.53 385.89,-46.13"/>
</g>
<!-- services/nodegroup&#45;&gt;services/cluster -->
<g id="edge9" class="edge">
<title>services/nodegroup&#45;&gt;services/cluster</title>
<path fill="none" stroke="black" d="M345.45,-145.46C367.01,-135.13 395.5,-121.47 418.55,-110.42"/>
<polygon fill="black" stroke="black" points="420.23,-113.49 427.74,-106.01 417.21,-107.18 420.23,-113.49"/>
</g>
<!-- services/sa -->
<g id="node8" class="node">
<title>services/sa</title>
<ellipse fill="none" stroke="black" cx="459.05" cy="-162" rx="48.99" ry="18"/>
<text text-anchor="middle" x="459.05" y="-158.3" font-family="Times,serif" font-size="14.00">services/sa</text>
</g>
<!-- services/sa&#45;&gt;services/cluster -->
<g id="edge10" class="edge">
<title>services/sa&#45;&gt;services/cluster</title>
<path fill="none" stroke="black" d="M459.05,-143.7C459.05,-135.98 459.05,-126.71 459.05,-118.11"/>
<polygon fill="black" stroke="black" points="462.55,-118.1 459.05,-108.1 455.55,-118.1 462.55,-118.1"/>
</g>
<!-- services/workers -->
<g id="node9" class="node">
<title>services/workers</title>
<ellipse fill="none" stroke="black" cx="865.05" cy="-162" rx="69.59" ry="18"/>
<text text-anchor="middle" x="865.05" y="-158.3" font-family="Times,serif" font-size="14.00">services/workers</text>
</g>
<!-- services/workers&#45;&gt;networking -->
<g id="edge11" class="edge">
<title>services/workers&#45;&gt;networking</title>
<path fill="none" stroke="black" d="M824.21,-147.41C770.14,-129.54 671.74,-97.42 587.05,-72 539.71,-57.79 485.34,-42.67 447.11,-32.23"/>
<polygon fill="black" stroke="black" points="447.83,-28.8 437.26,-29.55 445.99,-35.55 447.83,-28.8"/>
</g>
<!-- services/workers&#45;&gt;services/cluster -->
<g id="edge13" class="edge">
<title>services/workers&#45;&gt;services/cluster</title>
<path fill="none" stroke="black" d="M814.13,-149.64C804.8,-147.68 795.14,-145.72 786.05,-144 696.05,-127.04 591.5,-110.67 525.32,-100.72"/>
<polygon fill="black" stroke="black" points="525.44,-97.2 515.03,-99.18 524.4,-104.12 525.44,-97.2"/>
</g>
<!-- services/workers&#45;&gt;iam -->
<g id="edge12" class="edge">
<title>services/workers&#45;&gt;iam</title>
<path fill="none" stroke="black" d="M851.73,-144C834.79,-123.59 803.55,-89.89 769.05,-72 699.54,-35.97 607.08,-24.43 556.33,-20.74"/>
<polygon fill="black" stroke="black" points="556.37,-17.23 546.16,-20.06 555.9,-24.22 556.37,-17.23"/>
</g>
<!-- storage/efs -->
<g id="node10" class="node">
<title>storage/efs</title>
<ellipse fill="none" stroke="black" cx="167.05" cy="-162" rx="48.99" ry="18"/>
<text text-anchor="middle" x="167.05" y="-158.3" font-family="Times,serif" font-size="14.00">storage/efs</text>
</g>
<!-- storage/efs&#45;&gt;networking -->
<g id="edge14" class="edge">
<title>storage/efs&#45;&gt;networking</title>
<path fill="none" stroke="black" d="M191.33,-146.07C233.01,-120.45 318.2,-68.08 365.16,-39.22"/>
<polygon fill="black" stroke="black" points="367.05,-42.16 373.74,-33.94 363.39,-36.2 367.05,-42.16"/>
</g>
<!-- storage/efs&#45;&gt;services/cluster -->
<g id="edge15" class="edge">
<title>storage/efs&#45;&gt;services/cluster</title>
<path fill="none" stroke="black" d="M203.46,-149.95C210.59,-147.89 218.04,-145.82 225.05,-144 283.77,-128.76 351.41,-113.71 398.82,-103.56"/>
<polygon fill="black" stroke="black" points="399.57,-106.98 408.62,-101.47 398.11,-100.13 399.57,-106.98"/>
</g>
<!-- storage/s3 -->
<g id="node11" class="node">
<title>storage/s3</title>
<ellipse fill="none" stroke="black" cx="999.05" cy="-162" rx="46.29" ry="18"/>
<text text-anchor="middle" x="999.05" y="-158.3" font-family="Times,serif" font-size="14.00">storage/s3</text>
</g>
</g>
</svg>
